<?xml version="1.0" encoding="UTF-8"?><!DOCTYPE svg  PUBLIC '-//W3C//DTD SVG 1.1//EN'  'http://www.w3.org/Graphics/SVG/1.1/DTD/svg11.dtd'><svg enable-background="new 0 0 2165.567 641.871" version="1.1" viewBox="0 0 2165.6 641.87" xml:space="preserve" xmlns="http://www.w3.org/2000/svg"><path d="m575.52 304.46-234.78-234.78c-9.099-9.1-23.853-9.1-32.955 2e-3l-36.356 36.354 75.334 75.334c12.273-2.876 25.697 0.431 35.268 9.999 14.716 14.716 14.716 38.577 0 53.293s-38.578 14.716-53.291 0c-9.571-9.568-12.877-22.997-10.001-35.271l-75.332-75.332-170.4 170.4c-9.1 9.097-9.1 23.853 0 32.952l234.78 234.78c9.102 9.103 23.856 9.1 32.953 0l37.87-37.867-133.87-133.87 24.993-24.996 133.87 133.86 42.027-42.024-133.87-133.87 24.996-24.995 133.87 133.87 42.024-42.027-133.86-133.87 24.999-24.996 133.86 133.87 37.87-37.87c9.1-9.1 9.1-23.856 0-32.955zm-327.53 74.247c-14.718 14.716-38.58 14.714-53.296 0-14.716-14.719-14.713-38.577 0-53.292 14.719-14.716 38.578-14.716 53.296 0 14.716 14.715 14.716 38.576 0 53.292zm67.021-67.022c-14.716 14.716-38.577 14.716-53.291 0-14.719-14.718-14.716-38.577 0-53.293s38.575-14.716 53.291 0 14.716 38.577 0 53.293z" fill="#F05133"/><path d="m328.74 191.37c5.146-5.146 11.42-8.452 18.022-9.999l-75.334-75.334-28.021 28.023 75.332 75.332c1.546-6.599 4.852-12.874 10.001-18.022z" fill="#fff"/><path d="m261.71 258.39c-14.716 14.716-14.719 38.575 0 53.293 14.713 14.716 38.575 14.716 53.291 0s14.716-38.577 0-53.293-38.575-14.716-53.291 0z" fill="#fff"/><rect transform="matrix(-.7071 -.7071 .7071 -.7071 393.54 938.75)" x="296.53" y="370.2" width="189.32" height="35.35" fill="#fff"/><path d="m330.22 220.88-11.491-11.491c-2.876 12.273 0.431 25.703 10.001 35.271 14.713 14.716 38.574 14.716 53.291 0 14.716-14.716 14.716-38.577 0-53.293-9.571-9.568-22.995-12.875-35.268-9.999l11.488 11.488-28.021 28.024z" fill="#fff"/><path d="m318.73 209.39 11.491 11.491 28.021-28.024-11.488-11.488c-6.603 1.546-12.877 4.853-18.022 9.999-5.149 5.148-8.455 11.423-10.002 18.022z" fill="#fff"/><rect transform="matrix(-.7071 -.7071 .7071 -.7071 555.34 871.73)" x="363.56" y="303.17" width="189.32" height="35.352" fill="#fff"/><path d="m194.68 325.41c-14.713 14.715-14.716 38.573 0 53.292 14.716 14.714 38.578 14.716 53.296 0 14.716-14.716 14.716-38.577 0-53.292-14.718-14.716-38.577-14.716-53.296 0z" fill="#fff"/><rect transform="matrix(-.7071 -.7071 .7071 -.7071 231.73 1005.8)" x="229.51" y="437.22" width="189.32" height="35.352" fill="#fff"/><g fill="#F05133"><path d="m873.92 439.35v-8.16c-22.252 11.372-45.748 17.062-70.473 17.062-21.514 0-41.483-3.959-59.901-11.87-18.423-7.91-34.437-18.729-48.034-32.454-13.603-13.725-24.238-29.795-31.899-48.218-7.667-18.418-11.499-38.262-11.499-59.531 0-20.771 3.895-40.43 11.686-58.975 7.789-18.545 18.545-34.802 32.268-48.776 13.725-13.966 29.794-24.972 48.221-33.009 18.418-8.033 38.26-12.057 59.53-12.057 22.749 0 44.324 4.885 64.725 14.651 20.4 9.773 38.141 23.555 53.228 41.358l-63.056 41.914c-7.667-7.661-16.135-13.538-25.407-17.619-9.273-4.081-19.104-6.12-29.489-6.12-10.884 0-20.955 2.167-30.228 6.491-9.272 4.331-17.313 10.077-24.11 17.248-6.803 7.174-12.119 15.521-15.948 25.037-3.837 9.522-5.749 19.599-5.749 30.228 0 10.635 1.912 20.771 5.749 30.416 3.83 9.642 9.208 18.051 16.135 25.222 6.919 7.174 15.022 12.923 24.294 17.245 9.273 4.33 19.344 6.491 30.228 6.491 11.621 0 22.684-2.594 33.196-7.788 10.508-5.191 19.347-12.484 26.521-21.885h-50.815v-69.359h126.48v162.46h-65.656z"/><path d="m973.32 439.35v-244.43h71.584v244.43h-71.584z"/><path d="m1279.3 258.34h-63.057v181h-69.731v-181h-63.056l-5.934-5.933v-57.494h207.71v57.494l-5.933 5.933z"/><path d="m1308.2 439.35v-287.83h79.746v216.61h151.33v71.216h-231.08z"/><path d="m1558.6 439.35v-244.43h71.584v244.43h-71.584z"/><path d="m1770 447.14c-16.078 0-31.961-1.982-47.663-5.934-15.704-3.953-30.727-9.395-45.065-16.321-0.249 0-0.62-0.122-1.113-0.371-0.498-0.241-1.113-0.49-1.855-0.739-1.24-0.742-2.166-1.544-2.781-2.413-0.62-0.864-0.926-1.541-0.926-2.039 0-0.244 1.356-2.903 4.078-7.976 2.719-5.064 5.937-10.813 9.644-17.248 3.461-5.685 6.679-11.185 9.644-16.504 2.969-5.315 5.438-9.581 7.421-12.798 2.716 1.24 4.758 2.169 6.12 2.783 1.354 0.62 2.654 1.298 3.895 2.04 10.878 5.44 21.754 9.644 32.638 12.611 10.879 2.966 22.256 4.449 34.125 4.449h5.008c1.605 0 3.274-0.122 5.007-0.371 3.71 0 7.047-0.492 10.015-1.483 2.969-1.232 5.501-2.966 7.604-5.191 2.099-2.227 3.152-5.565 3.152-10.015 0-3.212-1.24-5.75-3.71-7.604-2.473-1.855-5.069-3.396-7.789-4.637-1.732-0.742-3.336-1.356-4.82-1.854-4.208-1.726-8.474-3.025-12.798-3.895-4.328-0.864-8.715-1.79-13.167-2.781-5.934-1.235-11.748-2.532-17.433-3.895-5.692-1.356-11.255-2.781-16.69-4.266-5.692-1.728-11.006-3.645-15.95-5.749-4.948-2.099-9.644-4.509-14.094-7.232-9.153-5.684-16.448-13.167-21.884-22.439-5.443-9.273-8.16-21.57-8.16-36.907 0-10.878 2.346-21.386 7.047-31.528 4.693-9.887 10.691-17.99 17.99-24.294 7.29-6.305 15.393-11.312 24.295-15.022 8.901-3.71 18.174-6.242 27.817-7.604 9.644-1.354 19.287-2.039 28.931-2.039 15.821 0 31.585 1.982 47.292 5.933 15.699 3.959 31.093 10.635 46.179 20.029-5.691 9.644-11.005 18.859-15.95 27.634-4.948 8.78-10.264 17.99-15.948 27.634-12.611-6.426-24.422-11.434-35.422-15.022-11.006-3.583-22.811-5.378-35.423-5.378-2.476 0-5.257 0.063-8.347 0.185-3.092 0.13-5.934 0.685-8.53 1.671-2.597 0.991-4.82 2.475-6.676 4.449-1.854 1.982-2.781 4.823-2.781 8.531 0 2.226 0.612 4.33 1.853 6.307 0.986 1.982 3.155 3.65 6.491 5.007 3.34 1.362 7.849 2.781 13.538 4.265 5.438 1.484 11.437 2.909 17.99 4.266 6.548 1.362 13.289 3.03 20.216 5.007 6.92 1.733 13.966 3.772 21.143 6.121 7.169 2.354 13.909 5.319 20.214 8.902 6.305 3.588 11.991 7.788 17.061 12.611 5.067 4.821 9.089 10.57 12.057 17.247 2.224 4.947 3.768 10.264 4.637 15.948 0.863 5.689 1.297 11.255 1.297 16.689 0 16.322-3.279 29.674-9.828 40.059-6.556 10.386-15.087 18.676-25.594 24.853-10.514 6.183-22.256 10.442-35.235 12.796-12.989 2.347-25.912 3.522-38.767 3.522z"/><path d="m2093.5 258.34h-63.056v181h-69.731v-181h-63.057l-5.934-5.933v-57.494h207.71v57.494l-5.933 5.933z"/></g></svg>