<svg width="1059.083" height="77.54" viewBox="0 0 1059.083 77.54" xmlns="http://www.w3.org/2000/svg"><g id="svgGroup" stroke-linecap="round" fill-rule="evenodd" font-size="9pt" stroke="#aaaaaa" stroke-width="0.25mm" fill="#aaaaaa" style="stroke:#aaaaaa;stroke-width:0.25mm;fill:#aaaaaa"><path d="M 673.975 49.316 L 673.34 49.268 Q 669.241 55.416 665.557 58.248 A 20.223 20.223 0 0 1 665.552 58.252 A 15.341 15.341 0 0 1 662.653 60.032 A 10.863 10.863 0 0 1 658.057 61.084 A 10.314 10.314 0 0 1 655.188 60.7 A 8.505 8.505 0 0 1 652.588 59.448 A 9.235 9.235 0 0 1 649.847 56.316 A 12.038 12.038 0 0 1 649.146 54.785 A 16.938 16.938 0 0 1 648.267 51.391 Q 648.015 49.777 647.999 47.951 A 28.302 28.302 0 0 1 647.998 47.705 A 34.926 34.926 0 0 1 648.95 39.697 A 33.71 33.71 0 0 1 651.782 31.982 Q 653.662 28.32 656.274 25.562 Q 658.887 22.803 662.378 21.118 A 17.131 17.131 0 0 1 669.922 19.434 A 21.836 21.836 0 0 1 672.919 19.631 A 17.194 17.194 0 0 1 675.171 20.093 Q 677.539 20.752 679.639 22.07 L 683.447 19.434 L 686.572 20.166 L 681.152 44.629 A 85.189 85.189 0 0 0 680.925 45.657 Q 680.609 47.131 680.444 48.193 A 18.328 18.328 0 0 0 680.235 50.346 A 16.217 16.217 0 0 0 680.225 50.928 Q 680.225 55.885 683.878 56.466 A 6.589 6.589 0 0 0 684.912 56.543 Q 688.379 56.543 691.064 53.735 A 14.918 14.918 0 0 0 693.314 50.631 Q 694.156 49.111 694.804 47.25 A 28.1 28.1 0 0 0 695.215 45.972 A 35.804 35.804 0 0 0 696.537 38.753 A 43.11 43.11 0 0 0 696.68 35.205 A 46.884 46.884 0 0 0 696.211 28.382 Q 695.68 24.776 694.547 21.752 A 25.889 25.889 0 0 0 693.726 19.8 Q 690.771 13.525 684.912 10.303 A 25.104 25.104 0 0 0 677.646 7.719 Q 674.623 7.12 671.166 7.083 A 42.731 42.731 0 0 0 670.703 7.08 A 38.887 38.887 0 0 0 661.041 8.234 A 31.517 31.517 0 0 0 652.661 11.694 A 30.525 30.525 0 0 0 640.989 24.323 A 36.566 36.566 0 0 0 640.723 24.854 A 40.801 40.801 0 0 0 636.934 37.734 A 51.669 51.669 0 0 0 636.523 44.336 A 45.776 45.776 0 0 0 637.019 51.267 Q 637.587 54.968 638.804 58.054 A 25.149 25.149 0 0 0 639.771 60.205 Q 643.018 66.602 649.219 69.8 Q 655.42 72.998 664.063 72.998 A 52.362 52.362 0 0 0 668.444 72.823 A 40.499 40.499 0 0 0 671.753 72.412 A 48.071 48.071 0 0 0 675.827 71.537 A 61.116 61.116 0 0 0 679.199 70.557 L 680.371 74.951 A 28.493 28.493 0 0 1 677.398 75.916 Q 675.85 76.332 674.08 76.653 A 51.217 51.217 0 0 1 672.876 76.855 A 58.221 58.221 0 0 1 664.403 77.536 A 63.878 63.878 0 0 1 663.818 77.539 A 61.249 61.249 0 0 1 655.347 76.988 Q 650.963 76.374 647.307 75.079 A 31.109 31.109 0 0 1 643.677 73.535 A 26.574 26.574 0 0 1 635.557 67.35 A 25.031 25.031 0 0 1 631.982 62.012 A 33.709 33.709 0 0 1 629.163 53.662 Q 628.399 49.933 628.256 45.656 A 59.877 59.877 0 0 1 628.223 43.652 Q 628.223 35.205 631.152 27.686 A 38.644 38.644 0 0 1 639.746 14.429 Q 645.41 8.691 653.174 5.591 A 43.889 43.889 0 0 1 666.199 2.639 A 52.248 52.248 0 0 1 670.166 2.49 A 54.585 54.585 0 0 1 677.498 2.958 Q 681.372 3.483 684.685 4.6 A 32.356 32.356 0 0 1 685.62 4.932 A 30.929 30.929 0 0 1 691.208 7.639 A 23.555 23.555 0 0 1 696.167 11.719 A 26.917 26.917 0 0 1 701.953 21.509 A 35.696 35.696 0 0 1 703.613 29.804 A 43.122 43.122 0 0 1 703.76 33.398 A 46.017 46.017 0 0 1 703.149 41.064 A 35.186 35.186 0 0 1 701.318 47.852 A 26.316 26.316 0 0 1 698.794 52.85 A 19.421 19.421 0 0 1 694.409 57.642 A 16.522 16.522 0 0 1 684.033 61.084 A 14.77 14.77 0 0 1 680.594 60.691 A 13.645 13.645 0 0 1 680.127 60.571 A 9.127 9.127 0 0 1 677.652 59.489 A 8.352 8.352 0 0 1 676.88 58.936 A 7.666 7.666 0 0 1 675.048 56.764 A 9.348 9.348 0 0 1 674.658 56.006 Q 673.909 54.376 673.836 52.109 A 15.439 15.439 0 0 1 673.828 51.611 A 17.727 17.727 0 0 1 673.975 49.316 Z M 35.791 50.635 L 64.258 3.271 L 79.639 3.271 L 79.102 5.664 A 18.758 18.758 0 0 0 78.239 5.865 Q 77.352 6.097 76.79 6.358 A 3.645 3.645 0 0 0 76.44 6.543 A 4.122 4.122 0 0 0 75.626 7.2 Q 75.306 7.528 75.014 7.951 A 6.958 6.958 0 0 0 74.976 8.008 A 6.343 6.343 0 0 0 74.574 8.705 Q 74.19 9.468 73.806 10.604 A 26.245 26.245 0 0 0 73.657 11.06 Q 73.023 13.057 72.049 17.476 A 222.579 222.579 0 0 0 71.973 17.822 L 63.623 55.713 A 82.243 82.243 0 0 0 63.269 57.397 Q 62.975 58.878 62.835 59.941 A 21.361 21.361 0 0 0 62.793 60.278 Q 62.599 61.95 62.598 63.308 A 19.033 19.033 0 0 0 62.598 63.33 Q 62.598 65.527 63.696 66.431 A 3.563 3.563 0 0 0 64.578 66.947 Q 65.644 67.398 67.383 67.529 L 66.846 69.922 L 47.314 69.922 L 47.852 67.529 A 11.245 11.245 0 0 0 48.896 67.317 Q 49.99 67.035 50.635 66.577 A 4.848 4.848 0 0 0 51.715 65.507 A 6.293 6.293 0 0 0 52.197 64.746 Q 52.832 63.574 53.369 61.89 A 24.71 24.71 0 0 0 53.65 60.927 Q 54.039 59.507 54.612 57.005 A 257.944 257.944 0 0 0 54.98 55.371 L 61.475 25.928 Q 62.842 19.824 64.6 13.77 L 63.916 13.77 A 66.118 66.118 0 0 1 63.072 15.315 Q 61.668 17.818 58.901 22.451 A 923.908 923.908 0 0 1 57.08 25.488 L 34.863 62.158 L 29.541 62.158 L 25.488 30.762 Q 24.609 24.121 23.535 12.891 L 22.559 12.891 A 350.622 350.622 0 0 1 20.801 23.425 A 281.204 281.204 0 0 1 18.848 33.154 L 13.867 55.713 A 58.198 58.198 0 0 0 13.326 58.45 Q 12.846 61.26 12.842 63.298 A 17.447 17.447 0 0 0 12.842 63.33 Q 12.842 65.527 13.94 66.431 A 3.563 3.563 0 0 0 14.822 66.947 Q 15.888 67.398 17.627 67.529 L 17.09 69.922 L 0 69.922 L 0.537 67.529 A 11.245 11.245 0 0 0 1.582 67.317 Q 2.675 67.035 3.32 66.577 A 4.848 4.848 0 0 0 4.4 65.507 A 6.293 6.293 0 0 0 4.883 64.746 Q 5.518 63.574 6.055 61.89 A 24.71 24.71 0 0 0 6.336 60.927 Q 6.725 59.507 7.298 57.005 A 257.944 257.944 0 0 0 7.666 55.371 L 15.967 17.773 Q 16.455 15.674 16.748 13.77 A 25.331 25.331 0 0 0 17.041 9.912 Q 17.041 8.618 16.676 7.766 A 2.622 2.622 0 0 0 15.894 6.714 A 3.84 3.84 0 0 0 14.908 6.167 Q 13.965 5.799 12.57 5.686 A 14.184 14.184 0 0 0 12.256 5.664 L 12.793 3.271 L 30.225 3.271 L 35.791 50.635 Z M 271.338 35.205 L 275.049 35.205 A 45.089 45.089 0 0 0 277.048 35.164 Q 279.822 35.04 281.25 34.546 A 8.215 8.215 0 0 0 283.868 33.084 A 7.798 7.798 0 0 0 284.473 32.52 A 12.269 12.269 0 0 0 285.393 31.435 Q 285.84 30.849 286.299 30.131 A 29.706 29.706 0 0 0 287.231 28.564 A 35.261 35.261 0 0 0 288.022 27.042 Q 289.405 24.238 291.699 18.799 Q 294.629 11.816 297.07 8.765 A 15.838 15.838 0 0 1 303.198 4.102 A 19.212 19.212 0 0 1 308.694 2.648 A 23.939 23.939 0 0 1 311.475 2.49 A 11.037 11.037 0 0 1 317.993 4.541 A 14.532 14.532 0 0 1 320.446 6.765 Q 321.48 7.925 322.445 9.413 A 29.373 29.373 0 0 1 323.34 10.889 L 316.064 14.014 A 61.806 61.806 0 0 0 315.335 12.686 Q 314.282 10.828 313.477 9.766 A 10.359 10.359 0 0 0 312.396 8.543 A 7.742 7.742 0 0 0 311.157 7.568 A 4.92 4.92 0 0 0 308.496 6.787 A 5.172 5.172 0 0 0 307.04 6.987 A 4.552 4.552 0 0 0 306.201 7.324 Q 305.232 7.832 304.111 9.276 A 15.327 15.327 0 0 0 303.979 9.448 Q 302.9 10.881 301.481 13.607 A 68.073 68.073 0 0 0 301.172 14.209 A 84.948 84.948 0 0 0 300.296 15.991 Q 298.877 18.958 296.826 23.682 Q 294.678 28.662 292.505 31.592 Q 290.332 34.521 287.158 36.719 A 376.484 376.484 0 0 0 291.528 49.097 Q 293.848 55.322 295.288 58.252 A 59.088 59.088 0 0 0 295.978 59.613 Q 296.693 60.977 297.264 61.852 A 11.254 11.254 0 0 0 297.681 62.451 A 10.041 10.041 0 0 0 298.266 63.166 Q 298.9 63.866 299.487 64.185 A 3.855 3.855 0 0 0 301.021 64.632 A 4.708 4.708 0 0 0 301.416 64.648 A 6.668 6.668 0 0 0 303.946 64.175 A 6.317 6.317 0 0 0 305.078 63.574 A 11.409 11.409 0 0 0 305.981 62.894 Q 307.45 61.685 309.758 59.242 A 96.671 96.671 0 0 0 309.863 59.131 L 312.744 61.719 A 45.12 45.12 0 0 1 309.987 64.767 Q 308.596 66.161 307.247 67.218 A 21.158 21.158 0 0 1 305.42 68.506 A 14.521 14.521 0 0 1 298.52 70.669 A 17.658 17.658 0 0 1 297.412 70.703 A 14.134 14.134 0 0 1 295.248 70.546 Q 293.767 70.316 292.578 69.751 Q 290.576 68.799 289.209 67.065 A 15.383 15.383 0 0 1 288.051 65.358 Q 287.521 64.461 287.025 63.393 A 28.935 28.935 0 0 1 286.67 62.598 A 53.432 53.432 0 0 1 286.017 60.991 Q 284.937 58.221 283.252 53.296 Q 281.006 46.729 278.857 39.893 Q 273.975 40.43 270.215 40.43 L 267.529 52.832 Q 266.748 56.445 265.601 59.204 A 20.782 20.782 0 0 1 263.685 62.806 A 18.26 18.26 0 0 1 262.744 64.087 A 14.919 14.919 0 0 1 260.336 66.446 A 19.535 19.535 0 0 1 258.252 67.871 A 25.237 25.237 0 0 1 256.063 69.043 Q 254.517 69.769 253.125 70.117 A 19.994 19.994 0 0 1 248.837 70.694 A 22.466 22.466 0 0 1 248.193 70.703 A 11.208 11.208 0 0 1 241.553 68.628 A 14.263 14.263 0 0 1 238.966 66.229 Q 237.931 65.017 236.993 63.469 A 27.29 27.29 0 0 1 236.328 62.305 L 242.969 58.496 Q 244.896 62.304 246.693 64.237 A 11.17 11.17 0 0 0 246.924 64.478 A 7.281 7.281 0 0 0 248.407 65.653 A 5.276 5.276 0 0 0 251.123 66.406 Q 252.295 66.406 253.467 65.942 Q 254.513 65.528 255.383 64.395 A 7.51 7.51 0 0 0 255.591 64.111 A 8.491 8.491 0 0 0 256.244 62.984 Q 256.538 62.381 256.804 61.648 A 20.646 20.646 0 0 0 257.251 60.254 A 51.276 51.276 0 0 0 257.634 58.817 Q 258.221 56.494 259.044 52.609 A 349.018 349.018 0 0 0 259.131 52.197 L 265.527 21.338 Q 266.162 18.213 267.383 15.137 A 30.218 30.218 0 0 1 269.638 10.575 A 27.061 27.061 0 0 1 270.312 9.521 L 270.215 9.033 A 148.598 148.598 0 0 0 266.408 9.079 Q 262.324 9.184 259.533 9.53 A 32.14 32.14 0 0 0 257.935 9.766 Q 254.027 10.451 252.173 12.035 A 5.667 5.667 0 0 0 251.929 12.256 A 5.657 5.657 0 0 0 250.412 14.852 Q 250.098 15.959 250.098 17.334 Q 250.098 19.821 251.802 23.38 A 33.202 33.202 0 0 0 251.807 23.389 L 244.287 26.318 A 17.758 17.758 0 0 1 243.464 24.822 Q 243.095 24.063 242.854 23.349 A 10.296 10.296 0 0 1 242.749 23.022 A 10.805 10.805 0 0 1 242.35 20.976 A 13.513 13.513 0 0 1 242.285 19.629 A 7.128 7.128 0 0 1 242.548 17.755 Q 242.759 16.979 243.139 16.166 A 11.783 11.783 0 0 1 243.164 16.113 A 10.333 10.333 0 0 1 244.002 14.68 Q 244.478 13.99 245.111 13.262 A 22.973 22.973 0 0 1 246.191 12.109 A 25.402 25.402 0 0 1 248.296 10.239 Q 249.418 9.341 250.749 8.453 A 43.889 43.889 0 0 1 251.66 7.861 A 35.551 35.551 0 0 1 254.481 6.244 Q 255.911 5.514 257.249 5.023 A 20.152 20.152 0 0 1 257.861 4.81 Q 260.742 3.857 263.77 3.564 A 53.28 53.28 0 0 1 266.047 3.398 Q 267.228 3.335 268.587 3.303 A 125.25 125.25 0 0 1 271.484 3.271 L 277.051 3.271 L 278.369 6.152 Q 277.539 7.813 276.929 10.107 Q 276.318 12.402 275.586 15.625 L 271.338 35.205 Z M 932.08 15.625 L 932.08 57.666 A 70.675 70.675 0 0 0 932.098 59.298 Q 932.154 61.752 932.397 62.817 A 4.657 4.657 0 0 0 933.098 64.444 A 4.399 4.399 0 0 0 933.691 65.137 Q 934.668 66.064 937.256 66.699 L 937.256 69.922 L 911.768 69.922 L 911.768 66.699 Q 914.6 65.967 915.43 65.234 A 3.462 3.462 0 0 0 916.226 64.184 Q 916.443 63.754 916.583 63.23 A 6.073 6.073 0 0 0 916.602 63.159 A 6.611 6.611 0 0 0 916.735 62.437 Q 916.943 60.909 916.943 57.666 L 916.943 38.086 L 894.873 38.086 L 894.873 57.666 Q 894.873 61.328 895.215 62.769 A 4.837 4.837 0 0 0 895.764 64.147 A 4.2 4.2 0 0 0 896.558 65.112 Q 897.39 65.864 899.321 66.463 A 20.115 20.115 0 0 0 900.146 66.699 L 900.146 69.922 L 874.512 69.922 L 874.512 66.699 A 19.35 19.35 0 0 0 875.725 66.345 Q 876.901 65.956 877.602 65.513 A 3.464 3.464 0 0 0 878.101 65.137 A 4.226 4.226 0 0 0 879.178 63.523 A 5.479 5.479 0 0 0 879.395 62.817 A 8.405 8.405 0 0 0 879.544 61.955 Q 879.728 60.518 879.736 57.917 A 78.059 78.059 0 0 0 879.736 57.666 L 879.736 15.576 Q 879.736 11.865 879.419 10.425 Q 879.102 8.984 878.125 8.105 A 4.072 4.072 0 0 0 877.444 7.623 Q 876.691 7.185 875.484 6.788 A 21.519 21.519 0 0 0 874.512 6.494 L 874.512 3.271 L 900.146 3.271 L 900.146 6.494 Q 897.559 7.227 896.606 8.105 A 4.477 4.477 0 0 0 895.53 9.654 A 5.812 5.812 0 0 0 895.264 10.425 A 7.433 7.433 0 0 0 895.093 11.29 Q 894.883 12.736 894.874 15.37 A 70.102 70.102 0 0 0 894.873 15.625 L 894.873 31.934 L 916.943 31.934 L 916.943 15.625 Q 916.943 11.914 916.626 10.474 Q 916.309 9.033 915.356 8.13 Q 914.404 7.227 911.768 6.494 L 911.768 3.271 L 937.256 3.271 L 937.256 6.494 A 21.033 21.033 0 0 0 936.14 6.83 Q 934.833 7.265 934.131 7.739 A 3.826 3.826 0 0 0 933.13 8.706 A 3.561 3.561 0 0 0 932.739 9.424 A 7.55 7.55 0 0 0 932.335 10.801 A 9.415 9.415 0 0 0 932.202 11.719 A 18.662 18.662 0 0 0 932.149 12.439 Q 932.082 13.618 932.08 15.53 A 112.624 112.624 0 0 0 932.08 15.625 Z M 596.875 51.807 L 599.512 54.199 L 594.824 59.033 A 199.762 199.762 0 0 1 592.696 61.171 Q 591.715 62.142 590.821 62.994 A 115.516 115.516 0 0 1 590.234 63.55 A 49.679 49.679 0 0 1 587.426 66.006 A 42.304 42.304 0 0 1 586.157 66.992 A 34.369 34.369 0 0 1 584.703 68.024 Q 583.545 68.799 582.568 69.287 Q 581.201 69.971 580.039 70.299 A 9.676 9.676 0 0 1 579.712 70.386 A 10.731 10.731 0 0 1 577.148 70.703 A 9.751 9.751 0 0 1 575.149 70.511 Q 573.935 70.257 573.013 69.666 A 5.305 5.305 0 0 1 572.07 68.896 Q 570.313 67.09 570.313 64.063 Q 570.313 62.37 570.979 59.259 A 70.285 70.285 0 0 1 571.436 57.275 A 116.269 116.269 0 0 1 572.401 53.606 Q 572.969 51.577 573.67 49.303 A 225.305 225.305 0 0 1 574.561 46.484 A 187.034 187.034 0 0 0 575.537 43.404 Q 575.908 42.194 576.219 41.109 A 91.573 91.573 0 0 0 576.782 39.062 A 38.698 38.698 0 0 0 577.172 37.444 Q 577.49 35.971 577.565 34.926 A 8.436 8.436 0 0 0 577.588 34.326 Q 577.588 32.568 576.807 31.714 Q 576.192 31.041 575.001 30.898 A 5.747 5.747 0 0 0 574.316 30.859 A 8.163 8.163 0 0 0 571.09 31.553 Q 569.997 32.02 568.894 32.801 A 15.305 15.305 0 0 0 568.384 33.179 A 22.491 22.491 0 0 0 566.412 34.917 Q 564.457 36.833 562.162 39.779 A 81.768 81.768 0 0 0 561.401 40.771 Q 557.422 46.045 554.419 52.124 Q 551.84 57.345 549.495 64.458 A 145.675 145.675 0 0 0 548.73 66.846 L 541.211 70.703 L 539.307 70.703 A 775.326 775.326 0 0 0 544.085 52.478 Q 546.159 44.133 547.79 36.639 A 439.205 439.205 0 0 0 548.828 31.738 L 548.145 31.641 A 110.932 110.932 0 0 0 545.435 34.039 Q 542.226 36.966 538.013 41.162 Q 533.321 45.835 529.731 49.678 A 205.246 205.246 0 0 0 527.637 51.953 L 524.805 48.682 L 534.326 39.063 A 196.38 196.38 0 0 1 537.053 36.392 Q 538.466 35.033 540.071 33.534 A 352.275 352.275 0 0 1 541.162 32.52 A 142.42 142.42 0 0 1 549.561 25.342 L 558.105 21.387 L 559.766 21.387 A 1655.545 1655.545 0 0 0 556.616 32.018 Q 554.175 40.369 552.344 47.021 L 553.027 47.07 A 155.271 155.271 0 0 1 559.334 38.088 Q 571.233 22.461 579.443 22.461 A 8.768 8.768 0 0 1 581.336 22.653 Q 582.586 22.929 583.508 23.603 A 5.075 5.075 0 0 1 584.229 24.243 A 5.734 5.734 0 0 1 585.487 26.462 Q 585.889 27.736 585.889 29.395 A 11.134 11.134 0 0 1 585.837 30.405 Q 585.743 31.423 585.48 32.809 A 45.966 45.966 0 0 1 585.303 33.691 Q 584.824 35.965 583.107 41.888 A 537.225 537.225 0 0 1 582.275 44.727 A 1023.678 1023.678 0 0 0 581.394 47.709 Q 579.636 53.693 579.199 55.518 A 31.329 31.329 0 0 0 578.94 56.696 Q 578.727 57.766 578.677 58.51 A 6.397 6.397 0 0 0 578.662 58.936 A 5.178 5.178 0 0 0 578.744 59.885 Q 578.91 60.778 579.419 61.353 Q 580.176 62.207 581.592 62.207 A 14.393 14.393 0 0 0 582.801 62.159 Q 583.749 62.079 584.497 61.865 A 7.777 7.777 0 0 0 585.513 61.491 Q 586.288 61.147 587.158 60.596 A 17.404 17.404 0 0 0 588.152 59.911 Q 589.167 59.165 590.462 58.043 A 62.999 62.999 0 0 0 590.894 57.666 A 54.76 54.76 0 0 0 592.119 56.549 Q 593.475 55.278 595.215 53.513 A 196.997 196.997 0 0 0 596.875 51.807 Z M 788.721 5.078 L 788.721 18.945 L 782.031 18.945 A 37.033 37.033 0 0 0 781.298 16.565 Q 780.472 14.188 779.5 12.672 A 10.956 10.956 0 0 0 779.468 12.622 A 9.089 9.089 0 0 0 775.757 9.302 Q 773.979 8.441 771.407 8.255 A 20.541 20.541 0 0 0 769.922 8.203 A 13.333 13.333 0 0 0 761.377 11.157 Q 757.666 14.111 755.518 20.581 A 37.268 37.268 0 0 0 754.167 26.161 Q 753.681 29.063 753.491 32.439 A 80.65 80.65 0 0 0 753.369 36.963 Q 753.369 49.652 756.399 56.819 A 23.325 23.325 0 0 0 756.812 57.739 A 17.581 17.581 0 0 0 758.838 61.08 Q 760.37 63.027 762.278 64.005 A 9.129 9.129 0 0 0 766.504 64.99 A 11.378 11.378 0 0 0 768.942 64.746 Q 771.434 64.199 772.852 62.427 A 7.726 7.726 0 0 0 774.061 60.19 Q 774.819 58.079 774.894 54.952 A 29.183 29.183 0 0 0 774.902 54.248 L 774.902 52.393 A 90.169 90.169 0 0 0 774.887 50.67 Q 774.856 49.067 774.764 48.004 A 14.156 14.156 0 0 0 774.658 47.095 A 10.709 10.709 0 0 0 774.49 46.224 Q 774.286 45.376 773.976 44.847 A 2.791 2.791 0 0 0 773.901 44.727 Q 773.389 43.945 772.559 43.457 A 5.483 5.483 0 0 0 772.064 43.204 Q 771.486 42.939 770.585 42.638 A 33.974 33.974 0 0 0 769.629 42.334 L 769.629 39.111 L 794.629 39.111 L 794.629 42.334 A 16.177 16.177 0 0 0 793.442 42.737 Q 792.322 43.17 791.679 43.664 A 3.156 3.156 0 0 0 791.309 43.994 A 4.363 4.363 0 0 0 790.463 45.311 A 6.122 6.122 0 0 0 790.112 46.46 A 12.174 12.174 0 0 0 789.945 47.543 Q 789.816 48.681 789.798 50.255 A 45.708 45.708 0 0 0 789.795 50.781 L 789.795 69.189 L 782.764 70.654 L 779.443 67.139 A 24.257 24.257 0 0 1 768.648 70.598 A 29.992 29.992 0 0 1 766.113 70.703 Q 755.608 70.703 749.039 66.183 A 21.05 21.05 0 0 1 744.849 62.378 A 26.061 26.061 0 0 1 740.247 54.014 Q 737.842 47.057 737.842 37.158 Q 737.842 27.011 741.099 19.575 A 31.856 31.856 0 0 1 741.626 18.433 A 27.412 27.412 0 0 1 748.422 9.478 A 26.442 26.442 0 0 1 752.563 6.567 Q 759.717 2.49 769.092 2.49 A 77.058 77.058 0 0 1 780.868 3.355 A 62.563 62.563 0 0 1 788.721 5.078 Z M 422.607 21.045 L 424.072 23.145 Q 422.314 25.342 419.922 27.173 Q 417.529 29.004 415.381 29.736 L 399.268 29.736 L 394.629 46.68 A 364.402 364.402 0 0 0 394.125 48.647 Q 393.641 50.563 393.299 52.019 A 105.623 105.623 0 0 0 393.018 53.247 Q 392.606 55.098 392.424 56.261 A 17.236 17.236 0 0 0 392.334 56.909 Q 392.191 58.127 392.188 58.901 A 8.488 8.488 0 0 0 392.187 58.936 A 5.178 5.178 0 0 0 392.269 59.885 Q 392.436 60.778 392.944 61.353 Q 393.701 62.207 395.117 62.207 A 11.339 11.339 0 0 0 396.64 62.11 A 8.36 8.36 0 0 0 398.071 61.792 A 9.514 9.514 0 0 0 399.246 61.321 Q 400.027 60.95 400.879 60.4 Q 402.246 59.518 404.271 57.76 A 66.442 66.442 0 0 0 404.712 57.373 Q 407.031 55.322 410.4 51.807 L 413.037 54.199 L 408.105 59.277 Q 404.83 62.597 402.491 64.666 A 56.705 56.705 0 0 1 401.953 65.137 A 49.41 49.41 0 0 1 400.158 66.618 Q 398.721 67.743 397.485 68.506 A 21.109 21.109 0 0 1 396.054 69.318 Q 394.904 69.91 393.896 70.215 A 11.062 11.062 0 0 1 390.674 70.703 A 9.767 9.767 0 0 1 388.756 70.527 Q 386.819 70.139 385.645 68.896 Q 383.936 67.09 383.936 64.014 A 19.132 19.132 0 0 1 383.999 62.525 Q 384.062 61.719 384.188 60.792 A 43.953 43.953 0 0 1 384.424 59.277 A 59.769 59.769 0 0 1 384.723 57.687 Q 385.254 55.042 386.279 50.83 A 282.444 282.444 0 0 1 387.048 47.754 Q 388.33 42.737 390.381 35.303 L 389.941 35.254 A 335.805 335.805 0 0 1 387.512 38.054 Q 385.754 40.057 384.189 41.768 A 154.42 154.42 0 0 1 381.25 44.897 A 228.794 228.794 0 0 1 374.505 51.576 A 252.822 252.822 0 0 1 373.486 52.539 L 370.654 49.268 Q 380.176 40.527 390.234 30.078 L 389.844 29.736 Q 382.584 29.736 379.43 29.834 A 54.83 54.83 0 0 0 378.223 29.883 L 378.467 28.516 Q 378.689 27.997 379.573 27.281 A 12.693 12.693 0 0 1 380.2 26.807 A 18.864 18.864 0 0 1 382.354 25.489 A 22.567 22.567 0 0 1 383.447 24.951 L 392.432 24.951 A 211.608 211.608 0 0 1 393.231 21.567 Q 394.385 16.87 395.264 14.453 A 20.43 20.43 0 0 1 397.357 12.103 Q 398.473 11.022 399.841 9.978 A 32.728 32.728 0 0 1 400.024 9.839 Q 402.979 7.617 405.371 6.738 L 407.031 6.738 A 11.794 11.794 0 0 1 406.717 8.911 Q 405.907 12.556 403.028 19.794 A 260.65 260.65 0 0 1 400.928 24.902 A 243.044 243.044 0 0 0 403.535 24.866 Q 407.257 24.792 409.839 24.609 A 65.683 65.683 0 0 0 411.85 24.438 Q 413.907 24.228 415.283 23.926 Q 416.816 23.589 417.991 23.196 A 16.202 16.202 0 0 0 418.677 22.949 A 17.702 17.702 0 0 0 419.55 22.581 Q 420.397 22.201 421.525 21.617 A 75.143 75.143 0 0 0 422.607 21.045 Z M 477.051 21.045 L 478.516 23.145 Q 476.758 25.342 474.365 27.173 Q 471.973 29.004 469.824 29.736 L 453.711 29.736 L 449.072 46.68 A 364.402 364.402 0 0 0 448.569 48.647 Q 448.084 50.563 447.742 52.019 A 105.623 105.623 0 0 0 447.461 53.247 Q 447.05 55.098 446.867 56.261 A 17.236 17.236 0 0 0 446.777 56.909 Q 446.634 58.127 446.631 58.901 A 8.488 8.488 0 0 0 446.631 58.936 A 5.178 5.178 0 0 0 446.712 59.885 Q 446.879 60.778 447.388 61.353 Q 448.145 62.207 449.561 62.207 A 11.339 11.339 0 0 0 451.083 62.11 A 8.36 8.36 0 0 0 452.515 61.792 A 9.514 9.514 0 0 0 453.689 61.321 Q 454.471 60.95 455.322 60.4 Q 456.69 59.518 458.714 57.76 A 66.442 66.442 0 0 0 459.155 57.373 Q 461.475 55.322 464.844 51.807 L 467.48 54.199 L 462.549 59.277 Q 459.273 62.597 456.935 64.666 A 56.705 56.705 0 0 1 456.396 65.137 A 49.41 49.41 0 0 1 454.601 66.618 Q 453.165 67.743 451.929 68.506 A 21.109 21.109 0 0 1 450.497 69.318 Q 449.347 69.91 448.34 70.215 A 11.062 11.062 0 0 1 445.117 70.703 A 9.767 9.767 0 0 1 443.199 70.527 Q 441.263 70.139 440.088 68.896 Q 438.379 67.09 438.379 64.014 A 19.132 19.132 0 0 1 438.442 62.525 Q 438.505 61.719 438.632 60.792 A 43.953 43.953 0 0 1 438.867 59.277 A 59.769 59.769 0 0 1 439.166 57.687 Q 439.697 55.042 440.723 50.83 A 282.444 282.444 0 0 1 441.492 47.754 Q 442.773 42.737 444.824 35.303 L 444.385 35.254 A 335.805 335.805 0 0 1 441.956 38.054 Q 440.198 40.057 438.632 41.768 A 154.42 154.42 0 0 1 435.693 44.897 A 228.794 228.794 0 0 1 428.948 51.576 A 252.822 252.822 0 0 1 427.93 52.539 L 425.098 49.268 Q 434.619 40.527 444.678 30.078 L 444.287 29.736 Q 437.028 29.736 433.874 29.834 A 54.83 54.83 0 0 0 432.666 29.883 L 432.91 28.516 Q 433.133 27.997 434.016 27.281 A 12.693 12.693 0 0 1 434.644 26.807 A 18.864 18.864 0 0 1 436.797 25.489 A 22.567 22.567 0 0 1 437.891 24.951 L 446.875 24.951 A 211.608 211.608 0 0 1 447.675 21.567 Q 448.828 16.87 449.707 14.453 A 20.43 20.43 0 0 1 451.801 12.103 Q 452.916 11.022 454.284 9.978 A 32.728 32.728 0 0 1 454.468 9.839 Q 457.422 7.617 459.814 6.738 L 461.475 6.738 A 11.794 11.794 0 0 1 461.16 8.911 Q 460.351 12.556 457.471 19.794 A 260.65 260.65 0 0 1 455.371 24.902 A 243.044 243.044 0 0 0 457.979 24.866 Q 461.7 24.792 464.282 24.609 A 65.683 65.683 0 0 0 466.293 24.438 Q 468.35 24.228 469.727 23.926 Q 471.259 23.589 472.434 23.196 A 16.202 16.202 0 0 0 473.12 22.949 A 17.702 17.702 0 0 0 473.994 22.581 Q 474.841 22.201 475.968 21.617 A 75.143 75.143 0 0 0 477.051 21.045 Z M 946.582 24.707 L 946.582 21.484 L 965.576 21.484 L 965.576 48.584 A 121.172 121.172 0 0 0 965.601 51.091 Q 965.657 53.793 965.842 55.682 A 28.455 28.455 0 0 0 965.967 56.763 A 11.506 11.506 0 0 0 966.407 58.744 Q 966.783 59.905 967.398 60.803 A 6.636 6.636 0 0 0 967.798 61.328 A 4.611 4.611 0 0 0 970.251 62.826 Q 971.022 63.024 971.945 63.036 A 9.232 9.232 0 0 0 972.07 63.037 A 6.608 6.608 0 0 0 974.045 62.72 Q 974.94 62.44 975.879 61.914 A 9.964 9.964 0 0 0 979.006 59.137 A 11.65 11.65 0 0 0 979.272 58.765 A 7.888 7.888 0 0 0 980.443 56.229 A 7.242 7.242 0 0 0 980.664 54.443 L 980.664 35.596 Q 980.664 31.092 980.376 29.206 A 10.536 10.536 0 0 0 980.371 29.175 A 7.388 7.388 0 0 0 980.108 28.041 Q 979.915 27.446 979.629 26.983 A 3.522 3.522 0 0 0 979.126 26.343 A 4.053 4.053 0 0 0 978.39 25.774 Q 977.6 25.285 976.353 24.881 A 17.141 17.141 0 0 0 975.781 24.707 L 975.781 21.484 L 994.824 21.484 L 994.824 55.664 Q 994.824 59.375 994.946 61.084 Q 995.068 62.793 995.508 63.818 A 3.809 3.809 0 0 0 996.863 65.461 A 4.554 4.554 0 0 0 996.924 65.503 A 4.476 4.476 0 0 0 997.577 65.86 Q 998.546 66.299 1000.195 66.65 L 1000.195 69.922 L 986.914 70.361 L 981.006 70.361 L 981.445 63.33 L 980.859 63.184 Q 976.318 67.383 972.754 69.043 A 17.664 17.664 0 0 1 968.055 70.507 A 15.791 15.791 0 0 1 965.576 70.703 A 21.024 21.024 0 0 1 961.574 70.348 Q 957.244 69.507 954.858 66.675 A 11.846 11.846 0 0 1 952.858 63.114 Q 951.651 59.851 951.49 55.003 A 46.179 46.179 0 0 1 951.465 53.467 L 951.465 35.596 Q 951.465 31.168 951.225 29.398 A 9.426 9.426 0 0 0 951.196 29.199 A 6.443 6.443 0 0 0 950.839 27.848 A 4.742 4.742 0 0 0 949.976 26.416 Q 949.023 25.342 946.582 24.707 Z M 1012.402 69.824 L 1012.402 16.846 Q 1012.402 12.207 1012.256 10.107 A 18.712 18.712 0 0 0 1012.134 8.895 Q 1011.983 7.783 1011.711 7.032 A 5.031 5.031 0 0 0 1011.646 6.86 A 4.106 4.106 0 0 0 1010.875 5.617 A 3.798 3.798 0 0 0 1010.229 5.054 A 4.108 4.108 0 0 0 1009.58 4.696 Q 1008.604 4.257 1006.885 3.906 L 1006.885 0.684 L 1020.508 0 L 1026.514 0 L 1026.514 27.979 L 1026.563 28.027 A 47.496 47.496 0 0 1 1029.455 25.527 Q 1030.873 24.403 1032.194 23.574 A 20.146 20.146 0 0 1 1034.448 22.339 A 17.116 17.116 0 0 1 1041.699 20.703 A 19.494 19.494 0 0 1 1047.048 21.395 A 13.795 13.795 0 0 1 1054.736 26.831 Q 1058.997 32.839 1059.08 44.691 A 67.574 67.574 0 0 1 1059.082 45.166 Q 1059.082 53.29 1056.751 58.834 A 19.34 19.34 0 0 1 1053.345 64.307 Q 1047.607 70.703 1036.377 70.703 A 37.179 37.179 0 0 1 1027.248 69.616 A 32.249 32.249 0 0 1 1022.266 67.92 L 1018.652 70.703 L 1012.402 69.824 Z M 126.074 51.807 L 128.711 54.199 L 123.779 59.277 Q 120.503 62.597 118.165 64.666 A 56.705 56.705 0 0 1 117.627 65.137 A 49.41 49.41 0 0 1 115.831 66.618 Q 114.395 67.743 113.159 68.506 A 21.109 21.109 0 0 1 111.728 69.318 Q 110.577 69.91 109.57 70.215 A 11.062 11.062 0 0 1 106.348 70.703 A 9.751 9.751 0 0 1 104.348 70.511 Q 103.135 70.257 102.212 69.666 A 5.305 5.305 0 0 1 101.27 68.896 Q 99.512 67.09 99.512 64.063 Q 99.512 62.079 100.168 58.742 A 64.651 64.651 0 0 1 100.317 58.008 A 172.307 172.307 0 0 1 101.215 53.967 A 227.009 227.009 0 0 1 102.295 49.561 L 104.199 41.992 A 252.671 252.671 0 0 0 104.836 39.431 Q 105.215 37.869 105.518 36.523 A 82.623 82.623 0 0 0 106.445 31.738 L 105.762 31.641 A 98.868 98.868 0 0 0 101.99 34.998 Q 95.654 40.894 85.254 51.953 L 82.422 48.682 A 692.525 692.525 0 0 1 86.722 44.279 Q 90.933 40.009 94.222 36.848 A 205.814 205.814 0 0 1 97.021 34.204 A 251.188 251.188 0 0 1 101.705 29.972 Q 103.873 28.065 105.868 26.414 A 146.011 146.011 0 0 1 107.178 25.342 L 115.723 21.387 L 117.383 21.387 A 224.626 224.626 0 0 0 116.353 24.85 Q 115.907 26.393 115.432 28.103 A 423.214 423.214 0 0 0 114.453 31.689 L 111.182 43.457 Q 109.985 47.868 109.29 50.691 A 120.465 120.465 0 0 0 108.911 52.271 Q 108.203 55.322 108.032 56.714 Q 107.874 58.005 107.862 58.812 A 8.672 8.672 0 0 0 107.861 58.936 A 5.178 5.178 0 0 0 107.943 59.885 Q 108.11 60.778 108.618 61.353 Q 109.375 62.207 110.791 62.207 A 14.05 14.05 0 0 0 112.03 62.156 Q 112.997 62.07 113.745 61.841 Q 114.941 61.475 116.382 60.571 Q 117.822 59.668 120.215 57.52 A 80.352 80.352 0 0 0 121.987 55.875 Q 122.893 55.01 123.915 53.993 A 190.009 190.009 0 0 0 126.074 51.807 Z M 366.992 51.807 L 369.629 54.199 L 364.697 59.277 Q 361.421 62.597 359.083 64.666 A 56.705 56.705 0 0 1 358.545 65.137 A 49.41 49.41 0 0 1 356.749 66.618 Q 355.313 67.743 354.077 68.506 A 21.109 21.109 0 0 1 352.645 69.318 Q 351.495 69.91 350.488 70.215 A 11.062 11.062 0 0 1 347.266 70.703 A 9.751 9.751 0 0 1 345.266 70.511 Q 344.053 70.257 343.13 69.666 A 5.305 5.305 0 0 1 342.187 68.896 Q 340.43 67.09 340.43 64.063 Q 340.43 62.079 341.086 58.742 A 64.651 64.651 0 0 1 341.235 58.008 A 172.307 172.307 0 0 1 342.133 53.967 A 227.009 227.009 0 0 1 343.213 49.561 L 345.117 41.992 A 252.671 252.671 0 0 0 345.754 39.431 Q 346.133 37.869 346.436 36.523 A 82.623 82.623 0 0 0 347.363 31.738 L 346.68 31.641 A 98.868 98.868 0 0 0 342.908 34.998 Q 336.572 40.894 326.172 51.953 L 323.34 48.682 A 692.525 692.525 0 0 1 327.64 44.279 Q 331.851 40.009 335.14 36.848 A 205.814 205.814 0 0 1 337.939 34.204 A 251.188 251.188 0 0 1 342.623 29.972 Q 344.791 28.065 346.785 26.414 A 146.011 146.011 0 0 1 348.096 25.342 L 356.641 21.387 L 358.301 21.387 A 224.626 224.626 0 0 0 357.271 24.85 Q 356.824 26.393 356.35 28.103 A 423.214 423.214 0 0 0 355.371 31.689 L 352.1 43.457 Q 350.903 47.868 350.208 50.691 A 120.465 120.465 0 0 0 349.829 52.271 Q 349.121 55.322 348.95 56.714 Q 348.792 58.005 348.78 58.812 A 8.672 8.672 0 0 0 348.779 58.936 A 5.178 5.178 0 0 0 348.861 59.885 Q 349.028 60.778 349.536 61.353 Q 350.293 62.207 351.709 62.207 A 14.05 14.05 0 0 0 352.948 62.156 Q 353.915 62.07 354.663 61.841 Q 355.859 61.475 357.3 60.571 Q 358.74 59.668 361.133 57.52 A 80.352 80.352 0 0 0 362.905 55.875 Q 363.811 55.01 364.833 53.993 A 190.009 190.009 0 0 0 366.992 51.807 Z M 522.168 51.807 L 524.805 54.199 L 519.873 59.277 Q 516.597 62.597 514.259 64.666 A 56.705 56.705 0 0 1 513.721 65.137 A 49.41 49.41 0 0 1 511.925 66.618 Q 510.489 67.743 509.253 68.506 A 21.109 21.109 0 0 1 507.821 69.318 Q 506.671 69.91 505.664 70.215 A 11.062 11.062 0 0 1 502.441 70.703 A 9.751 9.751 0 0 1 500.442 70.511 Q 499.228 70.257 498.306 69.666 A 5.305 5.305 0 0 1 497.363 68.896 Q 495.605 67.09 495.605 64.063 Q 495.605 62.079 496.262 58.742 A 64.651 64.651 0 0 1 496.411 58.008 A 172.307 172.307 0 0 1 497.308 53.967 A 227.009 227.009 0 0 1 498.389 49.561 L 500.293 41.992 A 252.671 252.671 0 0 0 500.93 39.431 Q 501.309 37.869 501.611 36.523 A 82.623 82.623 0 0 0 502.539 31.738 L 501.855 31.641 A 98.868 98.868 0 0 0 498.083 34.998 Q 491.748 40.894 481.348 51.953 L 478.516 48.682 A 692.525 692.525 0 0 1 482.816 44.279 Q 487.026 40.009 490.316 36.848 A 205.814 205.814 0 0 1 493.115 34.204 A 251.188 251.188 0 0 1 497.799 29.972 Q 499.967 28.065 501.961 26.414 A 146.011 146.011 0 0 1 503.271 25.342 L 511.816 21.387 L 513.477 21.387 A 224.626 224.626 0 0 0 512.447 24.85 Q 512 26.393 511.525 28.103 A 423.214 423.214 0 0 0 510.547 31.689 L 507.275 43.457 Q 506.079 47.868 505.384 50.691 A 120.465 120.465 0 0 0 505.005 52.271 Q 504.297 55.322 504.126 56.714 Q 503.967 58.005 503.956 58.812 A 8.672 8.672 0 0 0 503.955 58.936 A 5.178 5.178 0 0 0 504.037 59.885 Q 504.203 60.778 504.712 61.353 Q 505.469 62.207 506.885 62.207 A 14.05 14.05 0 0 0 508.124 62.156 Q 509.091 62.07 509.839 61.841 Q 511.035 61.475 512.476 60.571 Q 513.916 59.668 516.309 57.52 A 80.352 80.352 0 0 0 518.08 55.875 Q 518.987 55.01 520.009 53.993 A 190.009 190.009 0 0 0 522.168 51.807 Z M 866.357 59.961 L 869.434 64.063 Q 865.137 67.725 861.621 69.214 Q 858.105 70.703 854.199 70.703 A 21.376 21.376 0 0 1 850.06 70.329 Q 845.816 69.49 843.335 66.772 A 12.251 12.251 0 0 1 840.85 62.473 Q 840.199 60.6 839.932 58.296 A 29.679 29.679 0 0 1 839.746 54.883 L 839.746 27.588 L 833.643 27.588 L 833.643 24.219 Q 836.621 23.73 838.037 22.754 A 6.503 6.503 0 0 0 840.21 20.193 A 7.646 7.646 0 0 0 840.234 20.142 Q 840.802 18.953 841.202 17.236 A 25.501 25.501 0 0 0 841.479 15.869 Q 841.797 14.062 842.012 11.634 A 89.078 89.078 0 0 0 842.187 9.277 L 853.857 9.277 L 853.857 21.484 L 867.773 21.484 L 867.773 27.588 L 853.857 27.588 L 853.857 49.609 A 96.9 96.9 0 0 0 853.889 52.188 Q 853.959 54.79 854.179 56.544 A 18.513 18.513 0 0 0 854.37 57.764 Q 854.704 59.48 855.337 60.606 A 4.914 4.914 0 0 0 856.104 61.646 A 4.057 4.057 0 0 0 859.046 62.89 A 5.184 5.184 0 0 0 859.131 62.891 A 11.56 11.56 0 0 0 861.028 62.743 Q 862.244 62.54 863.232 62.061 Q 864.941 61.23 866.357 59.961 Z M 131.543 66.113 L 128.711 62.891 A 708.562 708.562 0 0 0 156.201 41.211 A 17.083 17.083 0 0 1 154.322 39.236 A 13.388 13.388 0 0 1 153.076 37.402 A 8.789 8.789 0 0 1 152.023 34.07 A 11.001 11.001 0 0 1 151.953 32.813 A 7.619 7.619 0 0 1 153.585 28.107 A 9.92 9.92 0 0 1 154.028 27.563 A 12.431 12.431 0 0 1 157.018 25.104 A 16.956 16.956 0 0 1 159.668 23.828 A 20.947 20.947 0 0 1 166.443 22.477 A 24.098 24.098 0 0 1 167.334 22.461 A 21.839 21.839 0 0 1 171.58 22.863 A 19.656 19.656 0 0 1 172.705 23.12 A 17.274 17.274 0 0 1 174.993 23.879 A 12.786 12.786 0 0 1 177.051 24.951 Q 176.904 26.318 176.514 27.295 A 6.158 6.158 0 0 1 176.184 27.98 Q 175.798 28.678 175.143 29.54 A 20.897 20.897 0 0 1 175.049 29.663 A 15.479 15.479 0 0 1 174.274 30.581 Q 173.452 31.489 172.226 32.634 A 60.194 60.194 0 0 1 171.606 33.203 Q 169.238 35.352 165.479 38.33 L 169.727 41.26 A 35.22 35.22 0 0 1 172.397 43.293 Q 173.613 44.321 174.54 45.336 A 15.201 15.201 0 0 1 175.952 47.119 A 11.251 11.251 0 0 1 177.671 51.527 A 15.168 15.168 0 0 1 177.881 54.102 A 14.016 14.016 0 0 1 175.898 61.242 A 17.41 17.41 0 0 1 175.244 62.28 A 18.301 18.301 0 0 1 168.941 67.993 A 21.716 21.716 0 0 1 168.115 68.433 Q 163.623 70.703 158.545 70.703 Q 154.248 70.703 149.634 69.458 A 33.867 33.867 0 0 1 145.055 67.88 A 26.654 26.654 0 0 1 141.553 66.064 Q 141.992 59.863 143.066 57.129 L 142.578 57.129 L 131.543 66.113 Z M 185.352 66.113 L 182.52 62.891 A 708.562 708.562 0 0 0 210.01 41.211 A 17.083 17.083 0 0 1 208.131 39.236 A 13.388 13.388 0 0 1 206.885 37.402 A 8.789 8.789 0 0 1 205.832 34.07 A 11.001 11.001 0 0 1 205.762 32.813 A 7.619 7.619 0 0 1 207.393 28.107 A 9.92 9.92 0 0 1 207.837 27.563 A 12.431 12.431 0 0 1 210.826 25.104 A 16.956 16.956 0 0 1 213.477 23.828 A 20.947 20.947 0 0 1 220.252 22.477 A 24.098 24.098 0 0 1 221.143 22.461 A 21.839 21.839 0 0 1 225.389 22.863 A 19.656 19.656 0 0 1 226.514 23.12 A 17.274 17.274 0 0 1 228.802 23.879 A 12.786 12.786 0 0 1 230.859 24.951 Q 230.713 26.318 230.322 27.295 A 6.158 6.158 0 0 1 229.992 27.98 Q 229.607 28.678 228.952 29.54 A 20.897 20.897 0 0 1 228.857 29.663 A 15.479 15.479 0 0 1 228.083 30.581 Q 227.261 31.489 226.034 32.634 A 60.194 60.194 0 0 1 225.415 33.203 Q 223.047 35.352 219.287 38.33 L 223.535 41.26 A 35.22 35.22 0 0 1 226.206 43.293 Q 227.422 44.321 228.349 45.336 A 15.201 15.201 0 0 1 229.761 47.119 A 11.251 11.251 0 0 1 231.479 51.527 A 15.168 15.168 0 0 1 231.689 54.102 A 14.016 14.016 0 0 1 229.707 61.242 A 17.41 17.41 0 0 1 229.053 62.28 A 18.301 18.301 0 0 1 222.75 67.993 A 21.716 21.716 0 0 1 221.924 68.433 Q 217.432 70.703 212.354 70.703 Q 208.057 70.703 203.442 69.458 A 33.867 33.867 0 0 1 198.864 67.88 A 26.654 26.654 0 0 1 195.361 66.064 Q 195.801 59.863 196.875 57.129 L 196.387 57.129 L 185.352 66.113 Z M 803.076 69.922 L 803.076 66.699 A 12.841 12.841 0 0 0 804.273 66.323 Q 805.716 65.784 806.372 65.039 A 4.618 4.618 0 0 0 807.129 63.831 Q 807.434 63.135 807.593 62.256 A 13.056 13.056 0 0 0 807.73 61.216 Q 807.91 59.356 807.91 55.859 L 807.91 33.154 Q 807.91 29.736 807.471 28.296 A 5.088 5.088 0 0 0 807.005 27.211 A 3.737 3.737 0 0 0 806.03 26.099 Q 805.029 25.342 802.49 24.805 L 802.49 21.484 L 815.918 21.094 L 822.021 21.094 L 822.021 55.811 A 129.797 129.797 0 0 0 822.036 57.846 Q 822.081 60.683 822.261 62.03 A 9.798 9.798 0 0 0 822.29 62.231 Q 822.559 63.965 823.486 65.015 A 3.602 3.602 0 0 0 824.263 65.659 Q 825.078 66.175 826.391 66.559 A 15.333 15.333 0 0 0 826.904 66.699 L 826.904 69.922 L 803.076 69.922 Z M 1026.514 37.256 L 1026.514 53.906 Q 1026.514 59.391 1028.245 62.25 A 7.437 7.437 0 0 0 1028.589 62.769 A 6.673 6.673 0 0 0 1032.687 65.386 A 10.633 10.633 0 0 0 1035.01 65.625 Q 1039.502 65.625 1041.87 60.913 A 18.378 18.378 0 0 0 1043.218 57.198 Q 1044.238 53.197 1044.238 47.461 Q 1044.238 39.129 1042.663 34.46 A 15.844 15.844 0 0 0 1042.139 33.105 A 10.147 10.147 0 0 0 1040.772 30.816 A 6.346 6.346 0 0 0 1035.596 28.369 A 8.62 8.62 0 0 0 1032.203 29.082 A 10.543 10.543 0 0 0 1031.348 29.492 A 9.446 9.446 0 0 0 1027.881 32.69 A 8.127 8.127 0 0 0 1026.514 37.256 Z M 675.293 36.523 L 675.684 34.717 Q 676.074 32.959 676.196 31.689 Q 676.318 30.42 676.318 29.15 Q 676.318 26.171 675.12 24.789 A 3.373 3.373 0 0 0 675 24.658 A 3.881 3.881 0 0 0 673.583 23.748 Q 672.957 23.505 672.17 23.391 A 10.626 10.626 0 0 0 670.654 23.291 A 9.394 9.394 0 0 0 667.407 23.853 A 9.476 9.476 0 0 0 665.851 24.597 Q 665.162 25.003 664.459 25.549 A 15.885 15.885 0 0 0 664.258 25.708 A 13.813 13.813 0 0 0 662.594 27.303 A 18.744 18.744 0 0 0 661.206 29.077 A 20.211 20.211 0 0 0 659.915 31.226 Q 659.216 32.56 658.594 34.155 A 35.107 35.107 0 0 0 657.124 38.934 A 40.803 40.803 0 0 0 656.763 40.649 A 37.717 37.717 0 0 0 656.156 45.529 A 32.676 32.676 0 0 0 656.104 47.363 A 24.624 24.624 0 0 0 656.192 49.532 Q 656.385 51.705 656.996 53.095 A 6.016 6.016 0 0 0 657.227 53.564 A 3.713 3.713 0 0 0 659.875 55.517 A 5.47 5.47 0 0 0 660.938 55.615 A 6.088 6.088 0 0 0 663.476 55.041 A 8.652 8.652 0 0 0 665.015 54.126 A 15.714 15.714 0 0 0 666.569 52.806 Q 667.313 52.093 668.088 51.202 A 34.463 34.463 0 0 0 669.312 49.707 Q 671.582 46.777 673.022 43.726 Q 674.418 40.769 675.24 36.782 A 43.558 43.558 0 0 0 675.293 36.523 Z M 164.111 46.973 L 159.375 43.652 L 146.729 53.906 Q 148.779 59.717 152.344 62.817 A 12.133 12.133 0 0 0 160.547 65.918 A 15.715 15.715 0 0 0 163.052 65.729 Q 164.452 65.503 165.61 65.006 A 8.791 8.791 0 0 0 166.479 64.575 A 9.764 9.764 0 0 0 168.327 63.239 A 7.422 7.422 0 0 0 169.897 61.182 A 9.508 9.508 0 0 0 170.947 56.787 A 8.571 8.571 0 0 0 169.434 51.807 Q 168.066 49.822 164.826 47.478 A 42.446 42.446 0 0 0 164.111 46.973 Z M 217.92 46.973 L 213.184 43.652 L 200.537 53.906 Q 202.588 59.717 206.152 62.817 A 12.133 12.133 0 0 0 214.355 65.918 A 15.715 15.715 0 0 0 216.861 65.729 Q 218.26 65.503 219.419 65.006 A 8.791 8.791 0 0 0 220.288 64.575 A 9.764 9.764 0 0 0 222.136 63.239 A 7.422 7.422 0 0 0 223.706 61.182 A 9.508 9.508 0 0 0 224.756 56.787 A 8.571 8.571 0 0 0 223.242 51.807 Q 221.875 49.822 218.635 47.478 A 42.446 42.446 0 0 0 217.92 46.973 Z M 808.252 2.002 L 821.631 2.002 L 821.631 13.965 L 808.252 13.965 L 808.252 2.002 Z M 109.082 10.01 L 116.65 3.32 L 121.826 10.059 L 113.916 16.748 L 109.082 10.01 Z M 350 10.01 L 357.568 3.32 L 362.744 10.059 L 354.834 16.748 L 350 10.01 Z M 505.176 10.01 L 512.744 3.32 L 517.92 10.059 L 510.01 16.748 L 505.176 10.01 Z M 168.896 27.979 A 17.377 17.377 0 0 0 167.715 27.385 Q 167.146 27.127 166.625 26.95 A 8.995 8.995 0 0 0 166.162 26.807 A 9.024 9.024 0 0 0 164.696 26.53 A 11.825 11.825 0 0 0 163.428 26.465 Q 161.084 26.465 159.717 27.588 A 3.831 3.831 0 0 0 158.77 28.704 A 3.511 3.511 0 0 0 158.35 30.42 A 5.561 5.561 0 0 0 158.553 31.956 A 4.452 4.452 0 0 0 159.375 33.545 A 10.695 10.695 0 0 0 160.416 34.651 Q 160.97 35.166 161.653 35.681 A 20.254 20.254 0 0 0 162.207 36.084 Q 165.381 33.301 167.017 31.396 Q 168.652 29.492 168.896 27.979 Z M 222.705 27.979 A 17.377 17.377 0 0 0 221.524 27.385 Q 220.954 27.127 220.434 26.95 A 8.995 8.995 0 0 0 219.971 26.807 A 9.024 9.024 0 0 0 218.505 26.53 A 11.825 11.825 0 0 0 217.236 26.465 Q 214.893 26.465 213.525 27.588 A 3.831 3.831 0 0 0 212.579 28.704 A 3.511 3.511 0 0 0 212.158 30.42 A 5.561 5.561 0 0 0 212.362 31.956 A 4.452 4.452 0 0 0 213.184 33.545 A 10.695 10.695 0 0 0 214.225 34.651 Q 214.779 35.166 215.462 35.681 A 20.254 20.254 0 0 0 216.016 36.084 Q 219.189 33.301 220.825 31.396 Q 222.461 29.492 222.705 27.979 Z" vector-effect="non-scaling-stroke"/></g></svg>